<svg width="633" height="632" viewBox="0 0 633 632" fill="none" xmlns="http://www.w3.org/2000/svg">
<mask id="mask0_962_75" style="mask-type:alpha" maskUnits="userSpaceOnUse" x="0" y="0" width="633" height="632">
<path fill-rule="evenodd" clip-rule="evenodd" d="M449.32 141.029L372.906 3H464.776L630 107.63L465.488 628.644H373.618L450.532 143.218L449.715 141.743L281.747 628.644H189.877L275.338 171.689L189.165 3H281.035L449.32 141.029ZM95.8703 211.904L4 3.35584H95.8703L274.626 172.045L96.5825 629H4.71217L95.8703 211.904Z" fill="#D9D9D9"/>
<path d="M372.906 3V0.5H368.664L370.718 4.21086L372.906 3ZM449.32 141.029L447.735 142.962L451.508 139.818L449.32 141.029ZM464.776 3L466.113 0.887883L465.501 0.5H464.776V3ZM630 107.63L632.384 108.383L632.964 106.547L631.338 105.518L630 107.63ZM465.488 628.644V631.144H467.32L467.872 629.397L465.488 628.644ZM373.618 628.644L371.149 628.253L370.69 631.144H373.618V628.644ZM450.532 143.218L453.002 143.61L453.136 142.76L452.72 142.007L450.532 143.218ZM449.715 141.743L451.903 140.532L449.183 135.62L447.352 140.927L449.715 141.743ZM281.747 628.644V631.144H283.53L284.111 629.459L281.747 628.644ZM189.877 628.644L187.42 628.185L186.866 631.144H189.877V628.644ZM275.338 171.689L277.795 172.149L277.952 171.311L277.564 170.552L275.338 171.689ZM189.165 3V0.5H185.081L186.939 4.1373L189.165 3ZM281.035 3L282.621 1.06703L281.929 0.5H281.035V3ZM4 3.35584V0.855839H0.166864L1.71215 4.36369L4 3.35584ZM95.8703 211.904L98.3127 212.438L98.4866 211.642L98.1582 210.896L95.8703 211.904ZM95.8703 3.35584L97.5861 1.53762L96.8637 0.855839H95.8703V3.35584ZM274.626 172.045L276.955 172.952L277.567 171.383L276.342 170.227L274.626 172.045ZM96.5825 629V631.5H98.2915L98.9119 629.908L96.5825 629ZM4.71217 629L2.26982 628.466L1.60678 631.5H4.71217V629ZM370.718 4.21086L447.133 142.24L451.508 139.818L375.093 1.78914L370.718 4.21086ZM464.776 0.5H372.906V5.5H464.776V0.5ZM631.338 105.518L466.113 0.887883L463.438 5.11212L628.663 109.742L631.338 105.518ZM467.872 629.397L632.384 108.383L627.616 106.877L463.104 627.891L467.872 629.397ZM373.618 631.144H465.488V626.144H373.618V631.144ZM448.063 142.827L371.149 628.253L376.087 629.035L453.002 143.61L448.063 142.827ZM447.528 142.953L448.345 144.429L452.72 142.007L451.903 140.532L447.528 142.953ZM447.352 140.927L279.384 627.829L284.111 629.459L452.079 142.558L447.352 140.927ZM281.747 626.144H189.877V631.144H281.747V626.144ZM192.334 629.104L277.795 172.149L272.88 171.229L187.42 628.185L192.334 629.104ZM277.564 170.552L191.391 1.8627L186.939 4.1373L273.112 172.826L277.564 170.552ZM189.165 5.5H281.035V0.5H189.165V5.5ZM279.45 4.93297L447.735 142.962L450.906 139.096L282.621 1.06703L279.45 4.93297ZM1.71215 4.36369L93.5825 212.912L98.1582 210.896L6.28785 2.34799L1.71215 4.36369ZM95.8703 0.855839H4V5.85584H95.8703V0.855839ZM276.342 170.227L97.5861 1.53762L94.1545 5.17406L272.91 173.863L276.342 170.227ZM98.9119 629.908L276.955 172.952L272.296 171.137L94.2531 628.092L98.9119 629.908ZM4.71217 631.5H96.5825V626.5H4.71217V631.5ZM93.428 211.37L2.26982 628.466L7.15452 629.534L98.3127 212.438L93.428 211.37Z" fill="black"/>
</mask>
<g mask="url(#mask0_962_75)">
<rect x="-41.0234" y="-110.818" width="713.313" height="878.782" fill="white"/>
</g>
</svg>
