<svg width="38" height="72" viewBox="0 0 38 72" fill="none" xmlns="http://www.w3.org/2000/svg">
<path d="M21.5 3C21.5 1.61929 20.3807 0.5 19 0.5C17.6193 0.5 16.5 1.61929 16.5 3L21.5 3ZM17.2322 70.7678C18.2085 71.7441 19.7915 71.7441 20.7678 70.7678L36.6777 54.8579C37.654 53.8816 37.654 52.2986 36.6777 51.3223C35.7014 50.346 34.1184 50.346 33.1421 51.3223L19 65.4645L4.85787 51.3223C3.88156 50.346 2.29864 50.346 1.32233 51.3223C0.346022 52.2986 0.346022 53.8816 1.32233 54.8579L17.2322 70.7678ZM16.5 3L16.5 69L21.5 69L21.5 3L16.5 3Z" fill="white"/>
</svg>
